<?xml version="1.0" standalone="no"?>
<!DOCTYPE svg PUBLIC "-//W3C//DTD SVG 20010904//EN" "http://www.w3.org/TR/2001/REC-SVG-20010904/DTD/svg10.dtd">
<svg version="1.0" xmlns="http://www.w3.org/2000/svg" width="1094.000000pt" height="515.000000pt"
  viewBox="0 0 1094.000000 515.000000" preserveAspectRatio="xMidYMid meet">

  <g transform="translate(0.000000,515.000000) scale(0.100000,-0.100000)" fill="#75c58e" stroke="none">
    <path d="M903 4903 c-27 -5 -25 -22 19 -163 113 -359 356 -638 667 -764 57
-23 100 -35 238 -66 53 -13 273 -25 273 -16 0 10 -113 160 -191 252 -75 89
-194 205 -309 303 -41 35 -79 68 -85 74 -5 5 31 -11 80 -36 154 -79 279 -191
390 -350 57 -82 195 -375 203 -430 l5 -40 -74 6 c-52 4 -111 19 -199 52 -261
96 -446 126 -640 106 -274 -30 -507 -150 -669 -346 -169 -203 -258 -393 -303
-645 -27 -153 -29 -459 -4 -635 47 -328 151 -662 290 -930 169 -325 416 -647
611 -796 171 -130 298 -180 480 -186 130 -5 211 8 385 64 75 24 101 27 220 27
125 0 142 -2 235 -33 149 -48 224 -61 355 -61 195 0 294 41 500 205 318 253
586 669 754 1168 227 674 199 1281 -80 1697 -187 280 -459 440 -801 472 -193
18 -339 -5 -593 -93 -135 -47 -214 -69 -252 -69 -28 0 -28 1 -28 63 0 70 45
261 86 365 38 95 111 241 142 282 46 63 105 124 177 184 88 73 95 82 95 124 0
24 -8 42 -29 63 -60 60 -131 29 -281 -121 -128 -129 -237 -332 -292 -545 -26
-99 -33 -115 -52 -115 -9 0 -19 31 -30 88 -39 198 -103 347 -206 475 -209 261
-497 379 -911 376 -85 -1 -164 -4 -176 -6z m2452 -1237 c572 -122 869 -693
759 -1461 -95 -659 -491 -1378 -916 -1662 -129 -86 -169 -98 -333 -97 -137 0
-143 1 -267 42 -165 54 -239 66 -362 59 -81 -4 -127 -13 -228 -46 -161 -51
-242 -65 -337 -58 -231 18 -451 180 -697 509 -101 136 -175 258 -266 438 l-77
155 572 3 c314 1 581 0 593 -2 11 -3 65 -52 120 -108 259 -269 271 -276 446
-286 l97 -5 11 -33 c18 -54 74 -117 131 -149 47 -26 64 -30 134 -30 59 0 89 5
115 19 63 34 106 74 136 128 26 47 29 63 29 138 0 75 -3 91 -30 138 -32 59
-66 91 -129 125 -59 31 -184 31 -243 -1 -56 -29 -106 -80 -129 -131 l-19 -40
-80 -1 c-118 0 -137 12 -309 193 -116 122 -161 163 -205 184 l-56 28 -622 3
-622 3 -21 72 c-12 40 -25 85 -31 101 -5 16 -9 35 -9 42 0 10 202 13 1065 13
l1064 1 21 -48 c60 -139 239 -208 372 -144 223 109 225 419 2 528 -49 24 -63
26 -133 22 -118 -7 -196 -60 -243 -165 l-19 -43 -1083 0 -1083 0 -12 83 c-6
45 -14 96 -17 114 l-6 32 548 3 549 3 50 24 c37 17 98 73 231 207 l181 184
385 0 385 0 18 -41 c24 -53 103 -123 162 -143 138 -47 283 16 350 152 65 133
15 303 -111 377 -64 38 -137 48 -208 30 -99 -25 -162 -81 -203 -177 l-15 -37
-404 -3 -404 -3 -53 -37 c-30 -21 -119 -108 -199 -194 -83 -90 -159 -162 -177
-170 -26 -11 -135 -14 -563 -14 l-530 0 0 54 c0 153 51 408 110 549 69 165
230 366 361 450 131 84 281 127 465 134 160 7 239 -7 444 -78 264 -91 262 -91
425 -96 187 -7 246 4 464 86 137 52 194 68 341 95 46 9 244 -3 315 -18z m-247
-713 c32 -20 62 -72 62 -108 0 -67 -66 -135 -130 -135 -39 0 -92 33 -112 71
-63 118 67 243 180 172z m-151 -803 c25 0 73 -53 83 -91 29 -108 -77 -200
-175 -153 -100 47 -100 189 0 235 22 11 49 17 60 14 11 -3 25 -5 32 -5z m-153
-819 c40 -27 55 -57 56 -114 0 -40 -5 -53 -34 -85 -32 -34 -39 -37 -90 -37
-49 0 -59 4 -87 32 -26 26 -33 42 -37 85 -4 48 -1 58 24 87 15 18 37 37 48 41
36 15 90 11 120 -9z" />
    <path d="M5336 3890 c-209 -24 -355 -109 -423 -248 -26 -52 -28 -66 -28 -172
0 -105 2 -120 28 -171 61 -125 180 -197 428 -258 224 -55 291 -90 325 -170 16
-39 19 -107 4 -116 -5 -3 -10 -14 -10 -24 0 -26 -59 -78 -107 -95 -182 -64
-425 13 -483 155 -7 16 -18 29 -24 29 -25 0 -216 -100 -216 -112 0 -21 53 -98
96 -142 123 -121 265 -171 484 -170 183 0 296 35 390 120 80 73 140 203 140
306 0 53 -31 170 -56 210 -61 96 -182 168 -364 213 -204 51 -288 83 -336 129
-44 43 -44 43 -44 114 0 70 1 73 39 111 51 51 101 66 221 65 77 0 105 -4 146
-23 58 -25 103 -68 130 -123 l19 -37 108 51 c121 59 126 68 82 138 -35 56 -75
94 -146 140 -111 72 -242 98 -403 80z" />
    <path d="M10165 3749 c-4 -6 -5 -70 -4 -142 l4 -132 -95 -5 -95 -5 0 -95 0
-95 93 -3 c50 -1 92 -6 92 -10 1 -4 2 -155 3 -337 l2 -330 30 -54 c56 -102
150 -144 316 -143 53 0 115 5 137 12 l42 11 0 102 0 102 -84 -3 c-64 -3 -91 0
-117 13 -73 37 -69 16 -69 342 l0 293 135 0 135 0 0 100 0 100 -135 0 -135 0
0 145 0 145 -124 0 c-78 0 -127 -4 -131 -11z" />
    <path d="M6594 3486 c-94 -22 -119 -38 -208 -135 -11 -12 -23 -21 -27 -21 -13
0 -18 30 -9 56 6 14 10 39 10 55 l0 30 -122 -3 -123 -3 0 -525 1 -525 119 -3
c65 -1 122 1 127 6 6 6 9 142 9 313 -1 298 6 404 32 436 68 83 118 108 219
108 69 0 80 -3 119 -30 83 -59 83 -61 89 -470 l5 -360 125 0 125 0 -3 310 c-4
352 2 411 50 469 83 101 260 114 348 26 67 -67 71 -96 69 -473 l-1 -332 121
-3 121 -3 1 88 c2 299 -2 673 -7 703 -13 67 -63 157 -115 204 -113 101 -307
123 -464 52 -51 -23 -125 -80 -125 -97 0 -16 -34 -49 -51 -49 -10 0 -21 12
-27 28 -29 84 -139 149 -267 157 -50 3 -103 -1 -141 -9z" />
    <path d="M8402 3489 c-90 -15 -196 -65 -250 -118 -56 -54 -95 -126 -90 -162 3
-21 11 -26 63 -36 84 -18 148 -20 152 -6 11 32 79 93 125 113 43 18 65 22 123
18 82 -6 124 -24 160 -72 28 -37 50 -142 34 -162 -5 -7 -69 -14 -156 -18 -172
-9 -274 -27 -359 -66 -111 -50 -172 -126 -194 -240 -26 -137 57 -276 196 -330
147 -58 397 -12 487 89 43 49 50 44 51 -39 l1 -45 113 -3 112 -3 0 400 c0 386
-1 401 -22 456 -68 179 -283 268 -546 224z m317 -682 c-3 -54 -9 -89 -19 -101
-77 -92 -137 -125 -244 -133 -98 -8 -152 16 -184 81 -12 24 -22 49 -22 56 0
19 32 83 50 101 49 48 160 73 354 77 l68 2 -3 -83z" />
    <path d="M9683 3475 c-45 -13 -143 -72 -143 -84 0 -19 -60 -73 -75 -68 -17 7
-21 42 -5 52 6 3 10 26 10 51 l0 44 -125 0 -125 0 2 -527 3 -528 123 0 124 0
1 312 c2 234 5 315 15 325 6 6 12 19 12 28 0 35 104 123 172 145 26 9 78 20
115 23 l67 7 3 118 3 117 -67 -1 c-38 0 -87 -6 -110 -14z" />
    <path d="M4890 1285 l0 -726 128 3 127 3 -1 35 c-5 139 -4 982 1 991 10 15 45
-19 45 -43 0 -10 4 -18 9 -18 5 0 13 -10 17 -22 3 -12 10 -26 15 -32 13 -15
154 -209 197 -271 19 -27 39 -54 44 -60 15 -18 168 -228 196 -270 14 -22 45
-65 67 -95 23 -30 63 -86 90 -125 27 -38 55 -75 64 -82 11 -8 58 -12 139 -13
l122 0 0 725 0 726 -127 -3 -128 -3 3 -527 4 -528 -21 0 c-12 0 -24 8 -27 18
-3 9 -10 26 -14 37 -5 11 -11 31 -14 45 -3 14 -18 39 -33 56 -16 18 -35 42
-43 54 -8 12 -35 50 -60 85 -25 34 -52 72 -60 85 -8 12 -22 30 -30 40 -8 10
-22 28 -30 40 -8 12 -49 68 -90 125 -41 56 -82 113 -90 125 -8 12 -47 66 -85
119 -39 53 -88 122 -110 154 -22 32 -47 63 -57 68 -9 5 -69 9 -132 9 l-116 0
0 -725z" />
    <path d="M7765 1898 c-3 -7 -6 -71 -7 -143 l-3 -130 -95 -5 -95 -5 -3 -89 c-2
-65 1 -92 10 -98 7 -4 52 -8 100 -8 l87 0 3 -342 c3 -331 4 -344 25 -384 62
-116 222 -178 397 -156 48 6 91 14 96 17 6 4 10 54 10 112 l0 105 -74 -7 c-87
-8 -140 4 -178 40 l-28 26 0 294 0 294 133 3 132 3 3 97 3 97 -133 3 -133 3
-3 143 -3 142 -120 0 c-87 0 -121 -3 -124 -12z" />
    <path d="M8973 1625 c-67 -20 -127 -61 -172 -114 -59 -70 -75 -62 -66 35 l7
74 -121 0 -121 0 0 -530 0 -531 128 3 127 3 5 337 5 338 60 58 c68 65 123 89
231 99 l64 6 0 118 0 119 -52 -1 c-29 0 -72 -6 -95 -14z" />
    <path d="M6443 1622 l-43 -3 0 -402 c0 -443 1 -455 64 -542 74 -103 184 -150
336 -142 137 6 255 60 302 137 31 51 47 39 50 -37 l3 -68 119 -3 119 -3 -7
168 c-4 92 -6 274 -5 403 1 129 3 291 3 360 l1 125 -96 5 c-53 3 -110 3 -125
0 l-29 -5 -5 -345 c-5 -373 -6 -375 -64 -442 -42 -47 -83 -62 -188 -66 -109
-5 -138 6 -197 74 l-31 35 0 374 c0 293 -3 375 -12 376 -35 3 -158 4 -195 1z" />
    <path d="M9403 1622 c-109 -3 -113 -4 -119 -26 -3 -13 -3 -90 0 -172 3 -82 5
-310 5 -506 l1 -358 125 0 125 0 -2 532 c-2 345 -7 532 -13 532 -5 1 -61 0
-122 -2z" />
  </g>
</svg>