<svg xmlns="http://www.w3.org/2000/svg" xmlns:xlink="http://www.w3.org/1999/xlink" width="3240" zoomAndPan="magnify" viewBox="0 0 2430 2100.000016" height="2800" preserveAspectRatio="xMidYMid meet" version="1.0"><defs><clipPath id="f0edae0a9f"><path d="M 0.578125 0 L 2429.421875 0 L 2429.421875 2099 L 0.578125 2099 Z M 0.578125 0 " clip-rule="nonzero"/></clipPath><clipPath id="f3c962dd4a"><path d="M 900 543 L 2117.0625 543 L 2117.0625 1983 L 900 1983 Z M 900 543 " clip-rule="nonzero"/></clipPath><clipPath id="73f39363b0"><path d="M 312.671875 581 L 1248 581 L 1248 2020 L 312.671875 2020 Z M 312.671875 581 " clip-rule="nonzero"/></clipPath></defs><g clip-path="url(#f0edae0a9f)"><path fill="#ffffff" d="M 0.578125 0 L 2429.421875 0 L 2429.421875 2099 L 0.578125 2099 Z M 0.578125 0 " fill-opacity="1" fill-rule="nonzero"/><path fill="#ffffff" d="M 0.578125 0 L 2429.421875 0 L 2429.421875 2099 L 0.578125 2099 Z M 0.578125 0 " fill-opacity="1" fill-rule="nonzero"/></g><g clip-path="url(#f3c962dd4a)"><path fill="#29605d" d="M 901.617188 821.878906 C 1076.074219 851.113281 1234.328125 752.175781 1378.777344 667.292969 C 1489.453125 602.820312 1612.46875 537.832031 1745.519531 543.746094 C 1881.140625 548.804688 1999.015625 646.546875 2056.28125 765.378906 C 2168.328125 1007.84375 2113.71875 1297.546875 1989.585938 1524.664062 C 1862.195312 1745.867188 1641.703125 1964.152344 1373.632812 1982.5 C 1281.648438 1984.988281 1184.691406 1958.582031 1117.480469 1892.90625 C 1042.640625 1821.230469 1035.867188 1710.027344 1095.875 1627.976562 C 1252.15625 1429.753906 1599.695312 1384.054688 1827.902344 1464.136719 C 1827.902344 1464.136719 1826.359375 1468.9375 1826.359375 1468.9375 C 1785.039062 1457.703125 1742.605469 1451.445312 1700.167969 1448.445312 C 1533.085938 1438.585938 1357.429688 1472.535156 1219.066406 1569.164062 C 989.488281 1726.832031 1130.425781 1937.832031 1371.660156 1930.203125 C 1619.585938 1913.824219 1831.933594 1709.515625 1954.523438 1504.773438 C 2076.425781 1289.660156 2133.605469 1010.929688 2030.21875 778.066406 C 1978.097656 666.007812 1870.597656 574.011719 1744.234375 566.382812 C 1615.554688 558.578125 1496.824219 619.109375 1386.320312 680.414062 C 1256.789062 753.117188 1119.109375 835.253906 965.3125 833.539062 C 943.625 833.023438 922.023438 830.878906 900.761719 826.851562 L 901.703125 821.878906 Z M 901.617188 821.878906 " fill-opacity="1" fill-rule="nonzero"/></g><path fill="#29605d" d="M 1118.765625 1298.0625 C 1204.75 1075.402344 1537.628906 861.316406 1750.148438 1044.195312 C 1834.246094 1126.929688 1836.648438 1253.480469 1841.621094 1363.308594 C 1846.847656 1506.832031 1832.53125 1649.753906 1856.964844 1791.308594 C 1869.136719 1860.582031 1891.339844 1928.316406 1929.0625 1990.046875 L 1925.03125 1993.132812 C 1773.722656 1823.886719 1790.097656 1575.335938 1791.726562 1363.820312 C 1791.8125 1278.085938 1795.414062 1186.605469 1753.578125 1109.527344 C 1729.488281 1065.199219 1687.308594 1033.992188 1639.558594 1018.988281 C 1502.996094 975.949219 1357.34375 1042.222656 1253.1875 1131.304688 C 1199.433594 1178.03125 1152.886719 1234.617188 1123.394531 1299.949219 C 1123.394531 1299.949219 1118.765625 1298.0625 1118.765625 1298.0625 Z M 1118.765625 1298.0625 " fill-opacity="1" fill-rule="nonzero"/><g clip-path="url(#73f39363b0)"><path fill="#29605d" d="M 1246.414062 671.839844 C 1057.984375 628.457031 860.210938 576.757812 667.410156 618.082031 C 514.902344 650.574219 383.824219 769.75 362.734375 926.734375 C 309.5 1223.640625 484.898438 1600.113281 676.667969 1821.828125 C 740.28125 1895.734375 814.777344 1959.78125 895.703125 2014.738281 C 895.703125 2014.738281 893.21875 2019.109375 893.21875 2019.109375 C 804.316406 1975.640625 721.503906 1917.339844 650.953125 1846.179688 C 415.457031 1609.03125 259.605469 1235.730469 329.472656 900.929688 C 381.082031 678.613281 596.171875 569.382812 811.691406 582.929688 C 960.511719 588.074219 1105.222656 628.027344 1247.613281 666.953125 C 1247.613281 666.953125 1246.328125 671.839844 1246.328125 671.839844 Z M 1246.414062 671.839844 " fill-opacity="1" fill-rule="nonzero"/></g><path fill="#977e6e" d="M 1278.5625 575.382812 C 1319.109375 567.324219 1481.308594 530.542969 1550.316406 399.539062 C 1587.4375 329.0625 1594.980469 236.292969 1598.238281 196.253906 C 1602.097656 148.757812 1600.554688 108.632812 1598.238281 79.738281 C 1598.238281 80.339844 1525.199219 109.832031 1517.828125 113.691406 C 1453.445312 147.128906 1391.722656 185.195312 1350.058594 246.066406 C 1291.847656 331.121094 1300.25 428.171875 1284.046875 525.398438 C 1283.707031 528.742188 1280.875 574.871094 1278.476562 575.296875 Z M 1278.5625 575.382812 " fill-opacity="1" fill-rule="nonzero"/><path fill="#977e6e" d="M 1215.464844 533.542969 C 1217.265625 504.308594 1221.46875 386.675781 1144.226562 315.773438 C 1102.734375 277.621094 1040.582031 255.671875 1013.835938 246.238281 C 982.03125 235.007812 954.339844 228.835938 934.109375 225.234375 C 934.539062 225.234375 941.480469 280.621094 942.769531 286.363281 C 953.996094 336.433594 968.914062 385.648438 1003.035156 425.085938 C 1050.785156 480.300781 1118.679688 492.046875 1182.289062 520.769531 C 1184.519531 521.625 1215.550781 531.828125 1215.464844 533.542969 Z M 1215.464844 533.542969 " fill-opacity="1" fill-rule="nonzero"/></svg>