<svg xmlns="http://www.w3.org/2000/svg" xmlns:xlink="http://www.w3.org/1999/xlink" width="3240" zoomAndPan="magnify" viewBox="0 0 2430 2100.000016" height="2800" preserveAspectRatio="xMidYMid meet" version="1.0"><defs><g/><clipPath id="de93e40e8b"><path d="M 0.578125 0 L 2429.421875 0 L 2429.421875 2099 L 0.578125 2099 Z M 0.578125 0 " clip-rule="nonzero"/></clipPath><clipPath id="22266761ef"><path d="M 975 224 L 1008 224 L 1008 257 L 975 257 Z M 975 224 " clip-rule="nonzero"/></clipPath><clipPath id="0c3b942a14"><path d="M 975.457031 224.839844 L 1007.527344 224.121094 L 1008.242188 256.191406 L 976.175781 256.90625 Z M 975.457031 224.839844 " clip-rule="nonzero"/></clipPath><clipPath id="b16f43eea1"><path d="M 991.492188 224.480469 C 982.636719 224.679688 975.621094 232.019531 975.816406 240.871094 C 976.015625 249.726562 983.355469 256.746094 992.207031 256.546875 C 1001.0625 256.351562 1008.082031 249.011719 1007.882812 240.15625 C 1007.6875 231.300781 1000.347656 224.285156 991.492188 224.480469 Z M 991.492188 224.480469 " clip-rule="nonzero"/></clipPath><clipPath id="88af0c04e3"><path d="M 347.304688 1018.089844 L 1934.992188 1018.089844 L 1934.992188 1920.082031 L 347.304688 1920.082031 Z M 347.304688 1018.089844 " clip-rule="nonzero"/></clipPath><clipPath id="d6b28eb1d9"><path d="M 347.304688 208.28125 L 992.042969 208.28125 L 992.042969 1920.082031 L 347.304688 1920.082031 Z M 347.304688 208.28125 " clip-rule="nonzero"/></clipPath><clipPath id="41cae86665"><path d="M 1918 1480 L 1951 1480 L 1951 1514 L 1918 1514 Z M 1918 1480 " clip-rule="nonzero"/></clipPath><clipPath id="bb29c72835"><path d="M 1918.339844 1481.34375 L 1950.40625 1480.628906 L 1951.121094 1512.695312 L 1919.054688 1513.410156 Z M 1918.339844 1481.34375 " clip-rule="nonzero"/></clipPath><clipPath id="6a2c3134ee"><path d="M 1934.371094 1480.988281 C 1925.515625 1481.183594 1918.5 1488.523438 1918.695312 1497.378906 C 1918.894531 1506.234375 1926.234375 1513.25 1935.089844 1513.054688 C 1943.945312 1512.855469 1950.960938 1505.515625 1950.761719 1496.660156 C 1950.566406 1487.804688 1943.226562 1480.789062 1934.371094 1480.988281 Z M 1934.371094 1480.988281 " clip-rule="nonzero"/></clipPath><clipPath id="25c9e99e83"><path d="M 1034 796 L 1641.664062 796 L 1641.664062 1516 L 1034 1516 Z M 1034 796 " clip-rule="nonzero"/></clipPath><clipPath id="09fe19d4d8"><path d="M 740.363281 816 L 1208 816 L 1208 1534 L 740.363281 1534 Z M 740.363281 816 " clip-rule="nonzero"/></clipPath></defs><g clip-path="url(#de93e40e8b)"><path fill="#ffffff" d="M 0.578125 0 L 2429.421875 0 L 2429.421875 2099 L 0.578125 2099 Z M 0.578125 0 " fill-opacity="1" fill-rule="nonzero"/><path fill="#ffffff" d="M 0.578125 0 L 2429.421875 0 L 2429.421875 2099 L 0.578125 2099 Z M 0.578125 0 " fill-opacity="1" fill-rule="nonzero"/></g><g fill="#29605d" fill-opacity="1"><g transform="translate(1040.817699, 263.502202)"><g><path d="M 48.53125 -3.15625 L 42.296875 -17.9375 L 19.59375 -16.46875 L 15.421875 -1 L 0.953125 -0.0625 L 21.125 -68.6875 L 34.140625 -69.53125 L 63 -4.109375 Z M 23.125 -28.90625 L 37.296875 -29.828125 L 28.859375 -49.953125 Z M 23.125 -28.90625 "/></g></g></g><g fill="#29605d" fill-opacity="1"><g transform="translate(1123.09181, 259.27226)"><g><path d="M 18.3125 -11.796875 L 45.828125 -11.21875 L 45.5625 0.96875 L 5.28125 0.109375 L 6.71875 -67.046875 L 19.484375 -66.765625 Z M 18.3125 -11.796875 "/></g></g></g><g fill="#29605d" fill-opacity="1"><g transform="translate(1190.546067, 261.723521)"><g><path d="M 10.96875 -66.46875 L 23.6875 -65.390625 L 17.984375 1.53125 L 5.265625 0.453125 Z M 10.96875 -66.46875 "/></g></g></g><g fill="#29605d" fill-opacity="1"><g transform="translate(1232.518367, 265.267097)"><g><path d="M 54.75 -59.34375 L 67.359375 -57.359375 L 56.875 8.984375 L 44.453125 7.03125 L 24.625 -40.21875 L 17.828125 2.8125 L 5.21875 0.828125 L 15.703125 -65.515625 L 28.015625 -63.578125 L 47.953125 -16.3125 Z M 54.75 -59.34375 "/></g></g></g><g fill="#29605d" fill-opacity="1"><g transform="translate(1312.423521, 278.920106)"><g><path d="M 20.46875 -7.4375 L 51.359375 0.296875 L 48.390625 12.125 L 5.125 1.28125 L 21.453125 -63.875 L 64.15625 -53.171875 L 61.171875 -41.265625 L 30.84375 -48.859375 L 27.125 -34.046875 L 54.578125 -27.171875 L 51.625 -15.34375 L 24.171875 -22.21875 Z M 20.46875 -7.4375 "/></g></g></g><g fill="#29605d" fill-opacity="1"><g transform="translate(1382.611107, 297.658077)"><g/></g></g><g fill="#29605d" fill-opacity="1"><g transform="translate(1424.291079, 311.272662)"><g><path d="M 43.1875 -26.1875 C 46.78125 -23.300781 49.890625 -20.453125 52.515625 -17.640625 C 55.148438 -14.828125 56.898438 -11.851562 57.765625 -8.71875 C 58.640625 -5.582031 58.300781 -2.082031 56.75 1.78125 C 55.363281 5.226562 53.273438 8.078125 50.484375 10.328125 C 47.703125 12.585938 44.28125 13.921875 40.21875 14.328125 C 36.15625 14.734375 31.535156 13.898438 26.359375 11.828125 C 22.328125 10.210938 18.785156 8.015625 15.734375 5.234375 C 12.691406 2.453125 10.421875 -0.597656 8.921875 -3.921875 C 7.421875 -7.242188 6.972656 -10.503906 7.578125 -13.703125 L 20.109375 -13.53125 C 19.753906 -10.925781 20.519531 -8.453125 22.40625 -6.109375 C 24.289062 -3.765625 26.863281 -1.9375 30.125 -0.625 C 33.738281 0.820312 36.75 1.289062 39.15625 0.78125 C 41.570312 0.269531 43.164062 -0.9375 43.9375 -2.84375 C 44.4375 -4.082031 44.472656 -5.285156 44.046875 -6.453125 C 43.628906 -7.628906 42.613281 -9.003906 41 -10.578125 C 39.394531 -12.160156 37.101562 -14.132812 34.125 -16.5 C 27.789062 -21.519531 23.640625 -26.128906 21.671875 -30.328125 C 19.703125 -34.523438 19.640625 -38.910156 21.484375 -43.484375 C 22.316406 -45.566406 23.554688 -47.5 25.203125 -49.28125 C 26.847656 -51.070312 28.878906 -52.5 31.296875 -53.5625 C 33.722656 -54.625 36.566406 -55.132812 39.828125 -55.09375 C 43.097656 -55.0625 46.722656 -54.25 50.703125 -52.65625 C 53.910156 -51.363281 56.773438 -49.570312 59.296875 -47.28125 C 61.828125 -45 63.742188 -42.382812 65.046875 -39.4375 C 66.347656 -36.5 66.695312 -33.429688 66.09375 -30.234375 L 54.03125 -30.53125 C 54.300781 -31.925781 54.066406 -33.289062 53.328125 -34.625 C 52.597656 -35.96875 51.59375 -37.1875 50.3125 -38.28125 C 49.03125 -39.375 47.613281 -40.234375 46.0625 -40.859375 C 43.601562 -41.921875 41.222656 -42.378906 38.921875 -42.234375 C 36.617188 -42.097656 35.050781 -40.988281 34.21875 -38.90625 C 33.84375 -37.957031 33.8125 -36.9375 34.125 -35.84375 C 34.445312 -34.75 35.320312 -33.445312 36.75 -31.9375 C 38.1875 -30.4375 40.332031 -28.519531 43.1875 -26.1875 Z M 43.1875 -26.1875 "/></g></g></g><g fill="#29605d" fill-opacity="1"><g transform="translate(1493.121646, 340.173308)"><g><path d="M 33.921875 -58.203125 L 45.421875 -52.65625 L 16.25 7.84375 L 4.75 2.296875 Z M 33.921875 -58.203125 "/></g></g></g><g fill="#29605d" fill-opacity="1"><g transform="translate(1531.203251, 358.76614)"><g><path d="M 21.703125 -1.765625 L 45.6875 11.75 L 39.703125 22.375 L 4.59375 2.59375 L 37.5625 -55.9375 L 48.6875 -49.671875 Z M 21.703125 -1.765625 "/></g></g></g><g fill="#29605d" fill-opacity="1"><g transform="translate(1589.150425, 391.944052)"><g><path d="M 77.8125 -28.203125 L 89.546875 -20.1875 L 31.609375 21.59375 L 20.84375 14.234375 L 38.65625 -54.9375 L 50.390625 -46.921875 L 37.046875 2.0625 Z M 77.8125 -28.203125 "/></g></g></g><g fill="#29605d" fill-opacity="1"><g transform="translate(1656.012924, 438.61641)"><g><path d="M 37.390625 31.109375 L 43.03125 16.078125 L 25.546875 1.53125 L 11.875 9.890625 L 0.734375 0.609375 L 62.578125 -35.3125 L 72.609375 -26.96875 L 48.53125 40.375 Z M 36.671875 -5.0625 L 47.578125 4.03125 L 55.328125 -16.390625 Z M 36.671875 -5.0625 "/></g></g></g><g fill="#29605d" fill-opacity="1"><g transform="translate(1718.765726, 492.647336)"><g/></g></g><g fill="#29605d" fill-opacity="1"><g transform="translate(1750.309865, 523.614249)"><g><path d="M 28.84375 -20.375 C 32.789062 -24.019531 36.472656 -25.660156 39.890625 -25.296875 C 43.316406 -24.941406 46.316406 -23.378906 48.890625 -20.609375 C 50.535156 -18.828125 51.691406 -16.847656 52.359375 -14.671875 C 53.023438 -12.492188 52.96875 -10.21875 52.1875 -7.84375 C 51.414062 -5.476562 49.710938 -3.082031 47.078125 -0.65625 C 43.179688 2.945312 39.492188 4.566406 36.015625 4.203125 C 32.546875 3.847656 29.554688 2.304688 27.046875 -0.421875 C 24.472656 -3.191406 23.15625 -6.304688 23.09375 -9.765625 C 23.03125 -13.234375 24.945312 -16.769531 28.84375 -20.375 Z M 28.84375 -20.375 "/></g></g></g><g fill="#29605d" fill-opacity="1"><g transform="translate(1787.328695, 564.73386)"><g/></g></g><g fill="#29605d" fill-opacity="1"><g transform="translate(1815.104095, 598.499596)"><g><path d="M 80.71875 -2.203125 L 88.09375 8.234375 L 33.25 47.015625 L 25.984375 36.734375 L 45.984375 -10.421875 L 10.421875 14.734375 L 3.046875 4.3125 L 57.890625 -34.46875 L 65.09375 -24.296875 L 45.15625 22.9375 Z M 80.71875 -2.203125 "/></g></g></g><g fill="#29605d" fill-opacity="1"><g transform="translate(1861.118844, 665.081665)"><g><path d="M 79.90625 4.109375 L 86.28125 15.171875 L 50.9375 35.546875 C 46.125 38.316406 41.429688 39.800781 36.859375 40 C 32.285156 40.195312 28.070312 39.171875 24.21875 36.921875 C 20.375 34.671875 17.160156 31.300781 14.578125 26.8125 C 11.992188 22.320312 10.691406 17.847656 10.671875 13.390625 C 10.648438 8.941406 11.867188 4.785156 14.328125 0.921875 C 16.796875 -2.929688 20.4375 -6.242188 25.25 -9.015625 L 60.59375 -29.390625 L 66.96875 -18.328125 L 31.875 1.90625 C 27.988281 4.132812 25.488281 6.898438 24.375 10.203125 C 23.257812 13.503906 23.707031 16.898438 25.71875 20.390625 C 27.707031 23.828125 30.414062 25.898438 33.84375 26.609375 C 37.269531 27.328125 40.925781 26.570312 44.8125 24.34375 Z M 79.90625 4.109375 "/></g></g></g><g fill="#29605d" fill-opacity="1"><g transform="translate(1899.877884, 734.218597)"><g><path d="M 82.703125 18.609375 L 71.5625 23.78125 L 63.96875 7.421875 L 14.1875 30.546875 L 8.8125 18.96875 L 58.59375 -4.15625 L 50.984375 -20.515625 L 62.125 -25.6875 Z M 82.703125 18.609375 "/></g></g></g><g fill="#29605d" fill-opacity="1"><g transform="translate(1929.915567, 800.66498)"><g><path d="M 13.921875 38.234375 L 31 17.8125 L 27.8125 9.078125 L 6.171875 16.953125 L 1.8125 4.96875 L 64.9375 -18.015625 L 73.4375 5.328125 C 75.132812 10.015625 75.648438 14.335938 74.984375 18.296875 C 74.316406 22.253906 72.722656 25.644531 70.203125 28.46875 C 67.679688 31.289062 64.5 33.40625 60.65625 34.8125 C 56.445312 36.34375 52.269531 36.703125 48.125 35.890625 C 43.988281 35.078125 40.40625 33.015625 37.375 29.703125 L 18.84375 51.75 Z M 57.75 -1.828125 L 39.265625 4.90625 L 43.296875 16 C 44.390625 19 46.125 21.050781 48.5 22.15625 C 50.875 23.269531 53.414062 23.335938 56.125 22.359375 C 58.832031 21.367188 60.722656 19.6875 61.796875 17.3125 C 62.878906 14.945312 62.875 12.265625 61.78125 9.265625 Z M 57.75 -1.828125 "/></g></g></g><g fill="#29605d" fill-opacity="1"><g transform="translate(1954.57019, 871.925169)"><g><path d="M 66 -13.546875 L 69.53125 -1.28125 L 5 17.34375 L 1.46875 5.078125 Z M 66 -13.546875 "/></g></g></g><g fill="#29605d" fill-opacity="1"><g transform="translate(1966.315391, 912.333476)"><g><path d="M 19.140625 32.140625 C 19.898438 35.765625 21.316406 38.765625 23.390625 41.140625 C 25.460938 43.515625 27.976562 45.242188 30.9375 46.328125 L 27.703125 58.78125 C 22.503906 57.0625 18 54.148438 14.1875 50.046875 C 10.382812 45.953125 7.84375 40.867188 6.5625 34.796875 C 5.570312 30.097656 5.503906 25.617188 6.359375 21.359375 C 7.222656 17.097656 8.890625 13.234375 11.359375 9.765625 C 13.835938 6.296875 16.953125 3.363281 20.703125 0.96875 C 24.453125 -1.425781 28.671875 -3.113281 33.359375 -4.09375 C 38.054688 -5.09375 42.597656 -5.25 46.984375 -4.5625 C 51.378906 -3.882812 55.40625 -2.460938 59.0625 -0.296875 C 62.726562 1.867188 65.820312 4.726562 68.34375 8.28125 C 70.863281 11.832031 72.617188 15.957031 73.609375 20.65625 C 74.890625 26.726562 74.628906 32.40625 72.828125 37.6875 C 71.023438 42.96875 68.0625 47.453125 63.9375 51.140625 L 55.921875 41.0625 C 58.210938 38.875 59.835938 36.269531 60.796875 33.25 C 61.765625 30.226562 61.867188 26.90625 61.109375 23.28125 C 60.273438 19.332031 58.632812 16.128906 56.1875 13.671875 C 53.738281 11.222656 50.769531 9.5625 47.28125 8.6875 C 43.789062 7.820312 40.046875 7.816406 36.046875 8.671875 C 32.097656 9.492188 28.707031 11.003906 25.875 13.203125 C 23.050781 15.410156 21.015625 18.128906 19.765625 21.359375 C 18.515625 24.597656 18.304688 28.191406 19.140625 32.140625 Z M 19.140625 32.140625 "/></g></g></g><g fill="#29605d" fill-opacity="1"><g transform="translate(1982.216364, 994.686348)"><g><path d="M 67.265625 -3.8125 L 68.984375 8.828125 L 2.421875 17.875 L 0.703125 5.234375 Z M 67.265625 -3.8125 "/></g></g></g><g fill="#29605d" fill-opacity="1"><g transform="translate(1988.060174, 1036.258918)"><g><path d="M 69.71875 31.453125 C 70 36.242188 69.394531 40.6875 67.90625 44.78125 C 66.414062 48.875 64.1875 52.445312 61.21875 55.5 C 58.257812 58.5625 54.75 60.992188 50.6875 62.796875 C 46.632812 64.609375 42.210938 65.65625 37.421875 65.9375 C 32.640625 66.21875 28.125 65.695312 23.875 64.375 C 19.625 63.0625 15.851562 61.054688 12.5625 58.359375 C 9.269531 55.671875 6.644531 52.382812 4.6875 48.5 C 2.726562 44.613281 1.609375 40.273438 1.328125 35.484375 C 1.046875 30.703125 1.644531 26.257812 3.125 22.15625 C 4.613281 18.0625 6.835938 14.46875 9.796875 11.375 C 12.753906 8.289062 16.265625 5.84375 20.328125 4.03125 C 24.390625 2.226562 28.8125 1.1875 33.59375 0.90625 C 38.382812 0.625 42.898438 1.140625 47.140625 2.453125 C 51.390625 3.773438 55.160156 5.796875 58.453125 8.515625 C 61.753906 11.242188 64.382812 14.550781 66.34375 18.4375 C 68.3125 22.332031 69.4375 26.671875 69.71875 31.453125 Z M 14.171875 34.734375 C 14.410156 38.816406 15.550781 42.238281 17.59375 45 C 19.644531 47.757812 22.328125 49.828125 25.640625 51.203125 C 28.960938 52.585938 32.632812 53.160156 36.65625 52.921875 C 40.75 52.679688 44.359375 51.679688 47.484375 49.921875 C 50.617188 48.171875 53.046875 45.800781 54.765625 42.8125 C 56.484375 39.820312 57.222656 36.285156 56.984375 32.203125 C 56.734375 28.117188 55.582031 24.679688 53.53125 21.890625 C 51.476562 19.097656 48.789062 17.007812 45.46875 15.625 C 42.15625 14.25 38.453125 13.679688 34.359375 13.921875 C 30.335938 14.160156 26.757812 15.15625 23.625 16.90625 C 20.5 18.664062 18.078125 21.054688 16.359375 24.078125 C 14.648438 27.097656 13.921875 30.648438 14.171875 34.734375 Z M 14.171875 34.734375 "/></g></g></g><g fill="#29605d" fill-opacity="1"><g transform="translate(1992.205055, 1124.971464)"><g><path d="M 65.359375 47.421875 L 64.859375 60.171875 L -2.265625 57.53125 L -1.765625 44.96875 L 42.8125 19.75 L -0.71875 18.03125 L -0.203125 5.28125 L 66.921875 7.921875 L 66.421875 20.375 L 21.828125 45.71875 Z M 65.359375 47.421875 "/></g></g></g><g fill="#29605d" fill-opacity="1"><g transform="translate(1987.60891, 1206.457183)"><g><path d="M 66.171875 12.703125 L 64.75 25.390625 L -2 17.9375 L -0.578125 5.25 Z M 66.171875 12.703125 "/></g></g></g><g fill="#29605d" fill-opacity="1"><g transform="translate(1982.833282, 1248.433208)"><g><path d="M 34.359375 37.03125 C 32.242188 41.125 30.070312 44.742188 27.84375 47.890625 C 25.625 51.035156 23.066406 53.351562 20.171875 54.84375 C 17.273438 56.332031 13.78125 56.707031 9.6875 55.96875 C 6.03125 55.300781 2.816406 53.820312 0.046875 51.53125 C -2.722656 49.25 -4.71875 46.160156 -5.9375 42.265625 C -7.15625 38.378906 -7.269531 33.695312 -6.28125 28.21875 C -5.507812 23.9375 -4.066406 20.019531 -1.953125 16.46875 C 0.160156 12.914062 2.691406 10.070312 5.640625 7.9375 C 8.585938 5.800781 11.691406 4.707031 14.953125 4.65625 L 17.3125 16.96875 C 14.675781 17.144531 12.398438 18.390625 10.484375 20.703125 C 8.566406 23.023438 7.296875 25.921875 6.671875 29.390625 C 5.984375 33.222656 6.132812 36.265625 7.125 38.515625 C 8.113281 40.773438 9.617188 42.085938 11.640625 42.453125 C 12.960938 42.691406 14.148438 42.488281 15.203125 41.84375 C 16.265625 41.195312 17.40625 39.925781 18.625 38.03125 C 19.84375 36.132812 21.304688 33.492188 23.015625 30.109375 C 26.671875 22.890625 30.351562 17.890625 34.0625 15.109375 C 37.78125 12.335938 42.066406 11.394531 46.921875 12.28125 C 49.117188 12.675781 51.257812 13.5 53.34375 14.75 C 55.425781 16.007812 57.226562 17.71875 58.75 19.875 C 60.28125 22.039062 61.359375 24.722656 61.984375 27.921875 C 62.617188 31.128906 62.554688 34.835938 61.796875 39.046875 C 61.179688 42.453125 60 45.625 58.25 48.5625 C 56.507812 51.5 54.332031 53.898438 51.71875 55.765625 C 49.113281 57.628906 46.179688 58.597656 42.921875 58.671875 L 40.796875 46.765625 C 42.210938 46.765625 43.5 46.265625 44.65625 45.265625 C 45.8125 44.273438 46.800781 43.039062 47.625 41.5625 C 48.445312 40.082031 49.007812 38.523438 49.3125 36.890625 C 49.84375 34.265625 49.804688 31.835938 49.203125 29.609375 C 48.597656 27.378906 47.191406 26.066406 44.984375 25.671875 C 43.984375 25.492188 42.976562 25.671875 41.96875 26.203125 C 40.957031 26.734375 39.859375 27.851562 38.671875 29.5625 C 37.492188 31.269531 36.054688 33.757812 34.359375 37.03125 Z M 34.359375 37.03125 "/></g></g></g><g fill="#29605d" fill-opacity="1"><g transform="translate(1968.862773, 1321.187609)"><g><path d="M 51.34375 67.453125 L 39.484375 64.25 L 44.203125 46.828125 L -8.78125 32.5 L -5.453125 20.203125 L 47.53125 34.53125 L 52.234375 17.109375 L 64.09375 20.3125 Z M 51.34375 67.453125 "/></g></g></g><g fill="#29605d" fill-opacity="1"><g transform="translate(1949.284209, 1391.292195)"><g><path d="M -16.859375 45.625 L -0.8125 45.9375 L 7.078125 24.59375 L -5.359375 14.5 L -0.328125 0.890625 L 54.171875 47.234375 L 49.640625 59.46875 L -21.875 59.234375 Z M 17.015625 32.875 L 12.09375 46.203125 L 33.90625 46.6875 Z M 17.015625 32.875 "/></g></g></g><g clip-path="url(#22266761ef)"><g clip-path="url(#0c3b942a14)"><g clip-path="url(#b16f43eea1)"><path fill="#29605d" d="M 975.457031 224.839844 L 1007.527344 224.121094 L 1008.242188 256.191406 L 976.175781 256.90625 Z M 975.457031 224.839844 " fill-opacity="1" fill-rule="nonzero"/></g></g></g><g clip-path="url(#88af0c04e3)"><path fill="#29605d" d="M 1203.316406 1920.304688 C 731.457031 1920.304688 347.304688 1536.152344 347.304688 1064.292969 C 347.304688 592.429688 731.457031 208.28125 1203.316406 208.28125 C 1675.175781 208.28125 2059.328125 592.429688 2059.328125 1064.292969 C 2059.328125 1536.152344 1675.175781 1920.304688 1203.316406 1920.304688 Z M 1203.316406 220.929688 C 738.203125 220.929688 359.957031 599.179688 359.957031 1064.292969 C 359.957031 1529.40625 738.203125 1907.652344 1203.316406 1907.652344 C 1668.429688 1907.652344 2046.675781 1529.40625 2046.675781 1064.292969 C 2046.675781 599.179688 1668.429688 220.929688 1203.316406 220.929688 Z M 1203.316406 220.929688 " fill-opacity="1" fill-rule="nonzero"/></g><g clip-path="url(#d6b28eb1d9)"><path fill="#29605d" d="M 1203.316406 1920.304688 C 731.457031 1920.304688 347.304688 1536.152344 347.304688 1064.292969 C 347.304688 592.429688 731.457031 208.28125 1203.316406 208.28125 C 1675.175781 208.28125 2059.328125 592.429688 2059.328125 1064.292969 C 2059.328125 1536.152344 1675.175781 1920.304688 1203.316406 1920.304688 Z M 1203.316406 220.929688 C 738.203125 220.929688 359.957031 599.179688 359.957031 1064.292969 C 359.957031 1529.40625 738.203125 1907.652344 1203.316406 1907.652344 C 1668.429688 1907.652344 2046.675781 1529.40625 2046.675781 1064.292969 C 2046.675781 599.179688 1668.429688 220.929688 1203.316406 220.929688 Z M 1203.316406 220.929688 " fill-opacity="1" fill-rule="nonzero"/></g><g clip-path="url(#41cae86665)"><g clip-path="url(#bb29c72835)"><g clip-path="url(#6a2c3134ee)"><path fill="#29605d" d="M 1918.339844 1481.34375 L 1950.40625 1480.628906 L 1951.121094 1512.695312 L 1919.054688 1513.410156 Z M 1918.339844 1481.34375 " fill-opacity="1" fill-rule="nonzero"/></g></g></g><g clip-path="url(#25c9e99e83)"><path fill="#29605d" d="M 1034.546875 935.847656 C 1121.6875 950.441406 1200.734375 901.050781 1272.886719 858.679688 C 1328.167969 826.492188 1389.617188 794.050781 1456.078125 797.003906 C 1523.820312 799.53125 1582.699219 848.320312 1611.304688 907.640625 C 1667.269531 1028.679688 1639.992188 1173.300781 1577.988281 1286.675781 C 1514.355469 1397.101562 1404.21875 1506.066406 1270.316406 1515.226562 C 1224.371094 1516.46875 1175.941406 1503.285156 1142.367188 1470.5 C 1104.984375 1434.722656 1101.601562 1379.210938 1131.578125 1338.25 C 1209.640625 1239.296875 1383.238281 1216.484375 1497.226562 1256.460938 C 1497.226562 1256.460938 1496.457031 1258.855469 1496.457031 1258.855469 C 1475.816406 1253.25 1454.621094 1250.125 1433.425781 1248.628906 C 1349.964844 1243.707031 1262.226562 1260.652344 1193.113281 1308.890625 C 1078.4375 1387.597656 1148.835938 1492.929688 1269.332031 1489.121094 C 1393.171875 1480.945312 1499.238281 1378.953125 1560.472656 1276.746094 C 1621.367188 1169.363281 1649.925781 1030.21875 1598.285156 913.976562 C 1572.25 858.035156 1518.550781 812.113281 1455.433594 808.304688 C 1391.160156 804.410156 1331.851562 834.625 1276.65625 865.226562 C 1211.953125 901.523438 1143.183594 942.523438 1066.359375 941.667969 C 1055.527344 941.410156 1044.738281 940.339844 1034.117188 938.328125 L 1034.589844 935.847656 Z M 1034.546875 935.847656 " fill-opacity="1" fill-rule="nonzero"/></g><path fill="#29605d" d="M 1143.011719 1173.554688 C 1185.960938 1062.40625 1352.234375 955.535156 1458.386719 1046.828125 C 1500.394531 1088.128906 1501.59375 1151.300781 1504.078125 1206.128906 C 1506.691406 1277.773438 1499.539062 1349.121094 1511.742188 1419.785156 C 1517.824219 1454.367188 1528.914062 1488.175781 1547.757812 1518.992188 L 1545.742188 1520.535156 C 1470.164062 1436.046875 1478.34375 1311.972656 1479.15625 1206.382812 C 1479.199219 1163.585938 1480.996094 1117.917969 1460.101562 1079.441406 C 1448.070312 1057.3125 1427 1041.734375 1403.148438 1034.242188 C 1334.933594 1012.757812 1262.183594 1045.84375 1210.15625 1090.3125 C 1183.304688 1113.636719 1160.054688 1141.882812 1145.324219 1174.5 C 1145.324219 1174.5 1143.011719 1173.554688 1143.011719 1173.554688 Z M 1143.011719 1173.554688 " fill-opacity="1" fill-rule="nonzero"/><g clip-path="url(#09fe19d4d8)"><path fill="#29605d" d="M 1206.773438 860.949219 C 1112.652344 839.289062 1013.863281 813.480469 917.558594 834.113281 C 841.378906 850.332031 775.90625 909.824219 765.371094 988.191406 C 738.78125 1136.40625 826.390625 1324.339844 922.183594 1435.019531 C 953.957031 1471.914062 991.167969 1503.886719 1031.589844 1531.320312 C 1031.589844 1531.320312 1030.347656 1533.503906 1030.347656 1533.503906 C 985.941406 1511.804688 944.578125 1482.699219 909.335938 1447.175781 C 791.707031 1328.792969 713.859375 1142.441406 748.757812 975.308594 C 774.535156 864.328125 881.972656 809.800781 989.625 816.5625 C 1063.964844 819.132812 1136.246094 839.078125 1207.371094 858.507812 C 1207.371094 858.507812 1206.730469 860.945312 1206.730469 860.945312 Z M 1206.773438 860.949219 " fill-opacity="1" fill-rule="nonzero"/></g><path fill="#977e6e" d="M 1222.828125 812.796875 C 1243.082031 808.773438 1324.101562 790.414062 1358.574219 725.015625 C 1377.113281 689.832031 1380.882812 643.523438 1382.507812 623.539062 C 1384.4375 599.824219 1383.664062 579.796875 1382.507812 565.371094 C 1382.507812 565.671875 1346.027344 580.394531 1342.34375 582.320312 C 1310.183594 599.011719 1279.351562 618.015625 1258.542969 648.402344 C 1229.464844 690.859375 1233.664062 739.308594 1225.570312 787.84375 C 1225.398438 789.515625 1223.984375 812.539062 1222.785156 812.753906 Z M 1222.828125 812.796875 " fill-opacity="1" fill-rule="nonzero"/><path fill="#977e6e" d="M 1191.3125 791.910156 C 1192.210938 777.316406 1194.3125 718.59375 1155.730469 683.199219 C 1135.003906 664.152344 1103.957031 653.199219 1090.597656 648.488281 C 1074.710938 642.882812 1060.878906 639.800781 1050.773438 638.003906 C 1050.988281 638.003906 1054.457031 665.652344 1055.097656 668.519531 C 1060.707031 693.515625 1068.160156 718.082031 1085.203125 737.769531 C 1109.054688 765.332031 1142.96875 771.195312 1174.742188 785.535156 C 1175.855469 785.960938 1191.355469 791.054688 1191.3125 791.910156 Z M 1191.3125 791.910156 " fill-opacity="1" fill-rule="nonzero"/></svg>