<svg xmlns="http://www.w3.org/2000/svg" version="1.1" width="593.3856000000001" height="654.7856" style="shape-rendering:geometricPrecision; text-rendering:geometricPrecision; image-rendering:optimizeQuality; fill-rule:evenodd; clip-rule:evenodd" xmlns:xlink="http://www.w3.org/1999/xlink" viewBox="218.21919999999994 183.96319999999997 593.3856000000001 654.7856">
<g></g>
<g><path style="opacity:1" fill="#70bf69" d="M 498.5,350.5 C 495.415,345.328 492.081,340.328 488.5,335.5C 479.345,321.165 469.179,307.498 458,294.5C 441.833,277 425,260.167 407.5,244C 440.614,261.437 467.114,286.27 487,318.5C 492.827,328.48 496.66,339.146 498.5,350.5 Z" data-index="1"></path></g>
<g><path style="opacity:1" fill="#0e4d19" d="M 542.5,301.5 C 536.862,318.071 531.862,334.737 527.5,351.5C 530.349,334.085 535.349,317.418 542.5,301.5 Z" data-index="2"></path></g>
<g><path style="opacity:1" fill="#0e6a36" d="M 516.5,303.5 C 523.376,288.414 531.043,273.08 539.5,257.5C 549.598,238.902 563.931,224.402 582.5,214C 591.955,212.95 597.622,217.116 599.5,226.5C 599.237,229.028 598.404,231.361 597,233.5C 580.288,244.545 566.621,258.545 556,275.5C 551.2,284.102 546.7,292.769 542.5,301.5C 535.349,317.418 530.349,334.085 527.5,351.5C 526.833,357.167 526.167,362.833 525.5,368.5C 541.54,365.32 557.207,360.82 572.5,355C 618.781,340.291 663.114,344.625 705.5,368C 738.442,389.969 760.276,420.136 771,458.5C 780.788,497.179 782.121,536.179 775,575.5C 761.648,649.199 729.982,713.532 680,768.5C 664.747,784.424 647.247,797.257 627.5,807C 609.916,814.716 591.583,817.383 572.5,815C 556.366,811.967 540.366,808.3 524.5,804C 514.5,802 504.5,802 494.5,804C 482.487,807.17 470.487,810.337 458.5,813.5C 457.903,812.861 457.07,812.528 456,812.5C 445.388,813.877 434.888,814.877 424.5,815.5C 399.731,811.78 378.064,801.613 359.5,785C 302.453,731.778 265.953,666.611 250,589.5C 238.452,541.312 240.118,493.645 255,446.5C 283.31,376.255 335.477,343.422 411.5,348C 435.198,350.787 458.198,356.454 480.5,365C 487.031,367.006 493.698,368.173 500.5,368.5C 500.732,362.384 500.066,356.384 498.5,350.5C 496.66,339.146 492.827,328.48 487,318.5C 467.114,286.27 440.614,261.437 407.5,244C 425,260.167 441.833,277 458,294.5C 469.179,307.498 479.345,321.165 488.5,335.5C 411.652,335.13 360.485,298.796 335,226.5C 332.359,216.913 329.526,207.413 326.5,198C 370.391,191.377 411.057,199.711 448.5,223C 470.456,238.733 486.289,259.233 496,284.5C 501.222,298.833 505.222,313.499 508,328.5C 510.368,319.894 513.201,311.561 516.5,303.5 Z" data-index="3"></path></g>
<g><path style="opacity:1" fill="#0c4f1a" d="M 539.5,257.5 C 531.043,273.08 523.376,288.414 516.5,303.5C 522.077,287.012 529.744,271.679 539.5,257.5 Z" data-index="4"></path></g>
<g><path style="opacity:1" fill="#6dbd67" d="M 290.5,649.5 C 339.452,647.843 388.452,646.843 437.5,646.5C 442.554,646.764 447.221,648.264 451.5,651C 465.862,665.696 480.529,680.029 495.5,694C 500.534,696.789 505.868,698.789 511.5,700C 519.493,700.5 527.493,700.666 535.5,700.5C 542.33,721.13 556.663,730.297 578.5,728C 603.368,720.439 612.868,703.939 607,678.5C 597.832,658.332 582.332,650.499 560.5,655C 548.786,659.213 540.453,667.047 535.5,678.5C 528.524,679.664 521.524,679.831 514.5,679C 511.126,678.479 508.126,677.146 505.5,675C 492.167,661.667 478.833,648.333 465.5,635C 459.081,629.858 451.748,626.858 443.5,626C 389.5,625.667 335.5,625.333 281.5,625C 278.443,615.935 275.776,606.768 273.5,597.5C 368.931,596.836 464.264,596.169 559.5,595.5C 570.578,619.924 588.911,627.758 614.5,619C 632.429,607.896 638.596,592.062 633,571.5C 624.912,553.77 611.079,545.603 591.5,547C 575.842,549.972 565.176,558.806 559.5,573.5C 462.833,573.5 366.167,573.5 269.5,573.5C 269.854,571.233 269.521,569.899 268.5,569.5C 267.326,564.318 266.326,558.984 265.5,553.5C 266.468,551.393 266.802,549.059 266.5,546.5C 312.905,546.833 358.572,546.5 403.5,545.5C 408.74,544.605 413.74,542.939 418.5,540.5C 421.262,539.62 423.929,538.454 426.5,537C 442.194,521.306 457.86,505.64 473.5,490C 475.715,488.956 478.048,488.29 480.5,488C 512.5,487.333 544.5,487.333 576.5,488C 586.752,510.986 604.085,518.986 628.5,512C 648.82,501.72 655.986,485.553 650,463.5C 641.341,445.084 626.841,436.918 606.5,439C 591.993,442.67 581.993,451.504 576.5,465.5C 541.799,466.034 507.133,466.867 472.5,468C 467.777,469.196 463.443,471.196 459.5,474C 443.833,489.667 428.167,505.333 412.5,521C 409.395,522.868 406.062,524.035 402.5,524.5C 356.67,523.501 310.67,523.168 264.5,523.5C 264.806,520.615 264.473,517.948 263.5,515.5C 263.738,476.953 275.238,442.287 298,411.5C 329.769,375.46 369.602,360.96 417.5,368C 423.196,369.206 428.863,370.539 434.5,372C 450.887,378.129 467.554,383.462 484.5,388C 504.222,391.485 523.889,391.152 543.5,387C 558.76,381.802 574.094,376.802 589.5,372C 636.393,360.04 678.06,369.706 714.5,401C 739.637,428.126 753.803,460.293 757,497.5C 761.036,569.357 744.369,636.024 707,697.5C 690.562,725.945 669.729,750.778 644.5,772C 629.385,784.555 612.051,792.222 592.5,795C 584.469,795.598 576.469,795.265 568.5,794C 554.576,790.019 540.576,786.353 526.5,783C 514.828,781.088 503.162,781.088 491.5,783C 475.862,787.215 460.195,791.215 444.5,795C 425.45,796.43 407.784,792.097 391.5,782C 372.496,769.667 355.996,754.5 342,736.5C 320.962,709.923 303.796,680.923 290.5,649.5 Z" data-index="5"></path></g>
<g><path style="opacity:1" fill="#6fbe68" d="M 609.5,459.5 C 619.288,458.477 626.122,462.477 630,471.5C 631.5,487.333 624.333,494.5 608.5,493C 597.248,487.584 594.082,479.084 599,467.5C 601.94,463.963 605.44,461.297 609.5,459.5 Z" data-index="6"></path></g>
<g><path style="opacity:1" fill="#87d273" d="M 263.5,515.5 C 264.473,517.948 264.806,520.615 264.5,523.5C 310.67,523.168 356.67,523.501 402.5,524.5C 356.167,524.5 309.833,524.5 263.5,524.5C 263.5,521.5 263.5,518.5 263.5,515.5 Z" data-index="7"></path></g>
<g><path style="opacity:1" fill="#045d30" d="M 418.5,540.5 C 413.74,542.939 408.74,544.605 403.5,545.5C 357.5,545.5 311.5,545.5 265.5,545.5C 283.561,544.318 301.727,543.318 320,542.5C 345.444,543.189 370.944,543.856 396.5,544.5C 399.998,544.308 403.165,543.308 406,541.5C 407.062,542.097 408.228,542.43 409.5,542.5C 412.512,541.828 415.512,541.161 418.5,540.5 Z" data-index="8"></path></g>
<g><path style="opacity:1" fill="#98e07c" d="M 265.5,545.5 C 311.5,545.5 357.5,545.5 403.5,545.5C 358.572,546.5 312.905,546.833 266.5,546.5C 266.802,549.059 266.468,551.393 265.5,553.5C 265.5,550.833 265.5,548.167 265.5,545.5 Z" data-index="9"></path></g>
<g><path style="opacity:1" fill="#6fbe68" d="M 592.5,567.5 C 608.092,567.348 614.926,575.015 613,590.5C 607.017,601.757 598.183,604.59 586.5,599C 576.866,589.002 577.199,579.335 587.5,570C 589.315,569.243 590.981,568.41 592.5,567.5 Z" data-index="10"></path></g>
<g><path style="opacity:1" fill="#84cf71" d="M 559.5,573.5 C 462.668,574.499 365.668,574.833 268.5,574.5C 268.5,572.833 268.5,571.167 268.5,569.5C 269.521,569.899 269.854,571.233 269.5,573.5C 366.167,573.5 462.833,573.5 559.5,573.5 Z" data-index="11"></path></g>
<g><path style="opacity:1" fill="#8dd978" d="M 559.5,595.5 C 464.264,596.169 368.931,596.836 273.5,597.5C 368.494,595.502 463.827,594.836 559.5,595.5 Z" data-index="12"></path></g>
<g><path style="opacity:1" fill="#8bd576" d="M 437.5,646.5 C 388.452,646.843 339.452,647.843 290.5,649.5C 290.196,648.85 289.863,648.183 289.5,647.5C 338.829,646.5 388.162,646.167 437.5,646.5 Z" data-index="13"></path></g>
<g><path style="opacity:1" fill="#6fbe68" d="M 566.5,674.5 C 584.578,674.74 590.745,683.407 585,700.5C 578.662,707.797 571.162,709.297 562.5,705C 555.815,699.728 553.648,692.894 556,684.5C 558.738,680.26 562.238,676.926 566.5,674.5 Z" data-index="14"></path></g>
<g><path style="opacity:1" fill="#013d0a" d="M 458.5,813.5 C 447.244,815.178 435.911,815.845 424.5,815.5C 434.888,814.877 445.388,813.877 456,812.5C 457.07,812.528 457.903,812.861 458.5,813.5 Z" data-index="15"></path></g>
</svg>